# xmcd
#
# Track frame offsets: 
#        150
#        16202
#        30304
#        48006
#        61208
#        77935
#        89712
#        105539
#        120166
#        134118
#        154894
#        169446
#        182348
#        196996
#        211848
#        227450
#        242377
#        252654
#        268256
#        284008
#
# Disc length: 3961 seconds
#
# Revision: 0
# Processed by: cddbd v1.5.1PL2 Copyright (c) Steve Scherf et al.
# Submitted via: ExactAudioCopy v0.95a5
#
DISCID=130f7714
DTITLE=鄧麗君 - 酒廊情歌 第一輯 HDCD
DYEAR=1900
DGENRE=Blues
TTITLE0=往事只能回味
TTITLE1=又是黃昏
TTITLE2=榕樹下
TTITLE3=綠島小夜曲
TTITLE4=相見不如懷念
TTITLE5=小城的故事
TTITLE6=庭院深深
TTITLE7=難忘的初戀情人
TTITLE8=珊瑚戀
TTITLE9=好好愛我
TTITLE10=留戀
TTITLE11=朦朧鳥朦朧
TTITLE12=愛的禮物
TTITLE13=幾許\花落時
TTITLE14=誓言
TTITLE15=你怎麼說
TTITLE16=梅蘭梅蘭我愛你
TTITLE17=午夜香吻
TTITLE18=三年
TTITLE19=多少柔情多少淚\
EXTD=
EXTT0=
EXTT1=
EXTT2=
EXTT3=
EXTT4=
EXTT5=
EXTT6=
EXTT7=
EXTT8=
EXTT9=
EXTT10=
EXTT11=
EXTT12=
EXTT13=
EXTT14=
EXTT15=
EXTT16=
EXTT17=
EXTT18=
EXTT19=
PLAYORDER=
